<svg width="27" height="26" viewBox="0 0 27 26" fill="none" xmlns="http://www.w3.org/2000/svg">
<g clip-path="url(#clip0_640_13938)">
<path fill-rule="evenodd" clip-rule="evenodd" d="M4.59533 5.71188C4.9088 4.98063 5.43008 4.35752 6.0945 3.91987C6.75892 3.48222 7.53722 3.24929 8.33283 3.25H18.6711C20.2961 3.25 21.7651 4.2185 22.4053 5.71188L23.6923 8.71488C23.8142 8.99925 24.0336 9.23325 24.3098 9.37138C25.1223 9.77763 25.6992 10.5333 25.878 11.4221L26.4223 14.1505C26.476 14.4121 26.502 14.6786 26.502 14.9468V15.6179C26.502 16.9406 25.8682 18.1253 24.877 18.863V21.9375C24.877 22.153 24.7913 22.3597 24.639 22.512C24.4866 22.6644 24.2799 22.75 24.0645 22.75H20.8145C20.599 22.75 20.3923 22.6644 20.2399 22.512C20.0876 22.3597 20.002 22.153 20.002 21.9375V19.7633C17.9025 19.8413 15.5413 19.9063 13.502 19.9063C11.4626 19.9063 9.10145 19.8413 7.00195 19.7633V21.9375C7.00195 22.153 6.91635 22.3597 6.76398 22.512C6.6116 22.6644 6.40494 22.75 6.18945 22.75H2.93945C2.72396 22.75 2.5173 22.6644 2.36493 22.512C2.21256 22.3597 2.12695 22.153 2.12695 21.9375V18.863C1.1357 18.1253 0.501953 16.9406 0.501953 15.6179V14.9468C0.502226 14.6794 0.528897 14.4127 0.581578 14.1505L1.12595 11.4205C1.3047 10.5333 1.88158 9.776 2.69245 9.37138C2.96999 9.23268 3.18936 9.00006 3.31158 8.71488L4.59858 5.71188H4.59533ZM5.37533 16.25C5.8063 16.25 6.21963 16.0788 6.52438 15.774C6.82912 15.4693 7.00033 15.056 7.00033 14.625C7.00033 14.194 6.82912 13.7807 6.52438 13.476C6.21963 13.1712 5.8063 13 5.37533 13C4.94435 13 4.53103 13.1712 4.22628 13.476C3.92153 13.7807 3.75033 14.194 3.75033 14.625C3.75033 15.056 3.92153 15.4693 4.22628 15.774C4.53103 16.0788 4.94435 16.25 5.37533 16.25ZM21.6253 16.25C22.0563 16.25 22.4696 16.0788 22.7744 15.774C23.0791 15.4693 23.2503 15.056 23.2503 14.625C23.2503 14.194 23.0791 13.7807 22.7744 13.476C22.4696 13.1712 22.0563 13 21.6253 13C21.1944 13 20.781 13.1712 20.4763 13.476C20.1715 13.7807 20.0003 14.194 20.0003 14.625C20.0003 15.056 20.1715 15.4693 20.4763 15.774C20.781 16.0788 21.1944 16.25 21.6253 16.25ZM10.2503 13C9.81935 13 9.40603 13.1712 9.10128 13.476C8.79653 13.7807 8.62533 14.194 8.62533 14.625C8.62533 15.056 8.79653 15.4693 9.10128 15.774C9.40603 16.0788 9.81935 16.25 10.2503 16.25H16.7503C17.1813 16.25 17.5946 16.0788 17.8994 15.774C18.2041 15.4693 18.3753 15.056 18.3753 14.625C18.3753 14.194 18.2041 13.7807 17.8994 13.476C17.5946 13.1712 17.1813 13 16.7503 13H10.2503ZM5.22258 8.43213L6.77608 5.3235C6.84362 5.18871 6.94733 5.07537 7.07562 4.99617C7.2039 4.91696 7.35169 4.87501 7.50245 4.875H19.4982C19.649 4.87501 19.7968 4.91696 19.925 4.99617C20.0533 5.07537 20.157 5.18871 20.2246 5.3235L21.7781 8.43213C21.8416 8.56319 21.8695 8.70868 21.8588 8.85393C21.8482 8.99919 21.7995 9.13908 21.7176 9.25952C21.6358 9.37997 21.5236 9.4767 21.3924 9.53999C21.2612 9.60327 21.1157 9.63087 20.9705 9.62C19.4917 9.50138 15.5267 9.34375 13.5003 9.34375C11.474 9.34375 7.50733 9.50138 6.0302 9.62C5.88497 9.63087 5.73943 9.60327 5.60825 9.53999C5.47708 9.4767 5.3649 9.37997 5.28301 9.25952C5.20112 9.13908 5.15242 8.99919 5.14181 8.85393C5.1312 8.70868 5.15906 8.56319 5.22258 8.43213Z" fill="white" fill-opacity="0.56"/>
</g>
<defs>
<clipPath id="clip0_640_13938">
<rect width="26" height="26" fill="white" transform="translate(0.5)"/>
</clipPath>
</defs>
</svg>
