<svg width="17" height="17" viewBox="0 0 17 17" fill="none" xmlns="http://www.w3.org/2000/svg">
<g clip-path="url(#clip0_640_14248)">
<path d="M13.1609 1.516L8.72318 0.0362956C8.57789 -0.0120985 8.42082 -0.0120985 8.27552 0.0362956L3.8371 1.516C3.13167 1.7505 2.51806 2.20132 2.08344 2.80442C1.64882 3.40752 1.41529 4.13224 1.41602 4.87563V8.50017C1.41602 13.8573 7.93268 16.816 8.21177 16.9393C8.30231 16.9795 8.40028 17.0003 8.49935 17.0003C8.59842 17.0003 8.69639 16.9795 8.78693 16.9393C9.06602 16.816 15.5827 13.8573 15.5827 8.50017V4.87563C15.5834 4.13215 15.3497 3.40737 14.915 2.80426C14.4802 2.20114 13.8665 1.75038 13.1609 1.516ZM8.49935 13.4585C8.35926 13.4585 8.22231 13.417 8.10582 13.3391C7.98934 13.2613 7.89855 13.1507 7.84494 13.0212C7.79132 12.8918 7.7773 12.7494 7.80463 12.612C7.83196 12.4746 7.89942 12.3484 7.99848 12.2493C8.09755 12.1502 8.22376 12.0828 8.36116 12.0554C8.49857 12.0281 8.64099 12.0421 8.77042 12.0958C8.89985 12.1494 9.01048 12.2402 9.08831 12.3566C9.16614 12.4731 9.20768 12.6101 9.20768 12.7502C9.20768 12.938 9.13306 13.1182 9.00022 13.251C8.86738 13.3839 8.68721 13.4585 8.49935 13.4585ZM9.20768 9.91684C9.20768 10.1047 9.13306 10.2849 9.00022 10.4177C8.86738 10.5505 8.68721 10.6252 8.49935 10.6252C8.31149 10.6252 8.13132 10.5505 7.99848 10.4177C7.86565 10.2849 7.79102 10.1047 7.79102 9.91684V4.25017C7.79102 4.06231 7.86565 3.88214 7.99848 3.7493C8.13132 3.61647 8.31149 3.54184 8.49935 3.54184C8.68721 3.54184 8.86738 3.61647 9.00022 3.7493C9.13306 3.88214 9.20768 4.06231 9.20768 4.25017V9.91684Z" fill="white"/>
</g>
<defs>
<clipPath id="clip0_640_14248">
<rect width="17" height="17" fill="white"/>
</clipPath>
</defs>
</svg>
