<svg width="23" height="22" viewBox="0 0 23 22" fill="none" xmlns="http://www.w3.org/2000/svg">
<g clip-path="url(#clip0_640_13950)">
<path d="M21.0941 7.75965L14.7416 1.40623C13.881 0.54822 12.7154 0.0664062 11.5002 0.0664062C10.285 0.0664063 9.11942 0.54822 8.25889 1.40623L1.90639 7.75965C1.04715 8.61915 0.564453 9.78473 0.564453 11.0001C0.564453 12.2154 1.04715 13.381 1.90639 14.2405L8.25889 20.5939C9.1193 21.4521 10.285 21.9341 11.5002 21.9341C12.7155 21.9341 13.8812 21.4521 14.7416 20.5939L21.0941 14.2405C21.9533 13.381 22.436 12.2154 22.436 11.0001C22.436 9.78473 21.9533 8.61915 21.0941 7.75965Z" fill="#A7A7B5"/>
</g>
<defs>
<clipPath id="clip0_640_13950">
<rect width="22" height="22" fill="white" transform="translate(0.5)"/>
</clipPath>
</defs>
</svg>
