<svg width="27" height="26" viewBox="0 0 27 26" fill="none" xmlns="http://www.w3.org/2000/svg">
<g clip-path="url(#clip0_640_13946)">
<path d="M21.9315 13.0849C21.7538 12.4501 21.5534 11.7784 21.3302 11.0558C20.6694 9.23392 20.2229 7.34123 19.9999 5.41602C19.9999 5.1287 20.114 4.85315 20.3172 4.64998C20.5204 4.44682 20.7959 4.33268 21.0832 4.33268C21.3705 4.33268 21.6461 4.44682 21.8493 4.64998C22.0524 4.85315 22.1666 5.1287 22.1666 5.41602C22.1666 5.70333 22.2807 5.97888 22.4839 6.18205C22.687 6.38521 22.9626 6.49935 23.2499 6.49935C23.5372 6.49935 23.8128 6.38521 24.0159 6.18205C24.2191 5.97888 24.3332 5.70333 24.3332 5.41602C24.3332 4.55406 23.9908 3.72741 23.3813 3.11792C22.7718 2.50843 21.9452 2.16602 21.0832 2.16602C20.2213 2.16602 19.3946 2.50843 18.7851 3.11792C18.1756 3.72741 17.8332 4.55406 17.8332 5.41602C17.8601 6.24325 17.9759 7.06518 18.1788 7.8676L12.9788 11.916L6.96847 7.58268H10.2499C10.5372 7.58268 10.8128 7.46854 11.0159 7.26538C11.2191 7.06222 11.3332 6.78667 11.3332 6.49935C11.3332 6.21203 11.2191 5.93648 11.0159 5.73332C10.8128 5.53015 10.5372 5.41602 10.2499 5.41602H6.96847C6.51842 5.41588 6.07985 5.5581 5.71552 5.82232C5.35119 6.08654 5.07977 6.45922 4.94009 6.88705C4.8004 7.31488 4.79962 7.77592 4.93784 8.20423C5.07606 8.63253 5.34621 9.00614 5.70964 9.2716L11.2032 13.2929L9.64539 14.5052C8.67774 13.5941 7.40648 13.0745 6.07772 13.047C4.74896 13.0194 3.45725 13.4859 2.45267 14.356C1.44809 15.2262 0.802106 16.4381 0.639796 17.7572C0.477486 19.0763 0.810394 20.4087 1.57406 21.4964C2.33773 22.5842 3.47784 23.3499 4.77364 23.6453C6.06944 23.9406 7.42875 23.7447 8.58839 23.0954C9.74803 22.4461 10.6255 21.3897 11.0509 20.1305C11.4763 18.8714 11.4194 17.4992 10.8912 16.2797L18.7876 10.1383C18.9404 10.6539 19.5752 12.7209 19.715 13.1965C18.4201 13.5346 17.2965 14.3406 16.5612 15.4589C15.8259 16.5771 15.5312 17.9282 15.734 19.251C15.9368 20.5738 16.6227 21.7746 17.6592 22.6212C18.6957 23.4678 20.0091 23.9002 21.3458 23.8349C22.6825 23.7696 23.9476 23.2111 24.8966 22.2675C25.8455 21.3238 26.4111 20.0619 26.4839 18.7256C26.5567 17.3893 26.1316 16.0734 25.2908 15.0322C24.45 13.991 23.2532 13.2984 21.9315 13.0882V13.0849Z" fill="white" fill-opacity="0.56"/>
</g>
<defs>
<clipPath id="clip0_640_13946">
<rect width="26" height="26" fill="white" transform="translate(0.5)"/>
</clipPath>
</defs>
</svg>
