<svg width="30" height="30" viewBox="0 0 30 30" fill="none" xmlns="http://www.w3.org/2000/svg">
<g clip-path="url(#clip0_640_16456)">
<path d="M10.875 22.5008H3.75C1.88375 22.5008 0 21.0833 0 17.9183V11.6183C0.0262839 8.74599 1.10178 5.98241 3.02397 3.84796C4.94616 1.7135 7.58239 0.355442 10.4362 0.0295267C12.0467 -0.0873804 13.6634 0.143754 15.1766 0.707223C16.6898 1.27069 18.064 2.15329 19.2057 3.29505C20.3475 4.43681 21.2301 5.81097 21.7936 7.32415C22.357 8.83733 22.5882 10.4541 22.4712 12.0645C22.1449 14.9196 20.7857 17.5567 18.6497 19.479C16.5138 21.4013 13.7485 22.476 10.875 22.5008ZM25 11.3508H24.985C24.985 11.647 24.985 11.9433 24.97 12.2408C24.4875 19.0008 18.3088 24.7233 11.355 24.977V24.9958C12.2308 26.5147 13.4905 27.7766 15.0078 28.6551C16.5251 29.5335 18.2467 29.9976 20 30.0008H26.25C27.2446 30.0008 28.1984 29.6057 28.9017 28.9024C29.6049 28.1992 30 27.2453 30 26.2508V20.0008C29.9982 18.2472 29.5353 16.5248 28.6577 15.0066C27.7801 13.4884 26.5187 12.2276 25 11.3508Z" fill="white"/>
</g>
<defs>
<clipPath id="clip0_640_16456">
<rect width="30" height="30" fill="white"/>
</clipPath>
</defs>
</svg>
