<svg width="16" height="16" viewBox="0 0 16 16" fill="none" xmlns="http://www.w3.org/2000/svg">
<path d="M9.33337 4.66651C9.33337 4.93022 9.25518 5.188 9.10867 5.40727C8.96216 5.62653 8.75392 5.79743 8.51029 5.89835C8.26665 5.99926 7.99856 6.02567 7.73992 5.97422C7.48128 5.92277 7.2437 5.79579 7.05723 5.60932C6.87076 5.42285 6.74377 5.18527 6.69233 4.92663C6.64088 4.66799 6.66728 4.3999 6.7682 4.15626C6.86912 3.91263 7.04002 3.70439 7.25928 3.55788C7.47855 3.41137 7.73633 3.33317 8.00004 3.33317C8.35366 3.33317 8.6928 3.47365 8.94285 3.7237C9.1929 3.97375 9.33337 4.31289 9.33337 4.66651ZM11.3054 8.12251L9.26671 10.1432C9.1013 10.31 8.9045 10.4423 8.68767 10.5327C8.47084 10.623 8.23827 10.6695 8.00337 10.6695C7.76848 10.6695 7.53591 10.623 7.31908 10.5327C7.10225 10.4423 6.90545 10.31 6.74004 10.1432L4.70271 8.13317C3.82788 7.23128 3.33796 6.0246 3.33646 4.76813C3.33497 3.51165 3.82203 2.30381 4.69471 1.39984C5.12362 0.956699 5.63726 0.604329 6.20508 0.363682C6.77291 0.123034 7.38333 -0.000976562 8.00004 -0.000976562C8.61676 -0.000976562 9.22717 0.123034 9.795 0.363682C10.3628 0.604329 10.8765 0.956699 11.3054 1.39984C12.1767 2.30186 12.6638 3.50701 12.6638 4.76117C12.6638 6.01533 12.1767 7.22049 11.3054 8.12251V8.12251ZM10.6667 4.66651C10.6667 4.13909 10.5103 3.62352 10.2173 3.18499C9.92428 2.74646 9.5078 2.40466 9.02053 2.20283C8.53326 2.00099 7.99708 1.94819 7.4798 2.05108C6.96252 2.15397 6.48736 2.40795 6.11442 2.78089C5.74148 3.15383 5.48751 3.62898 5.38461 4.14627C5.28172 4.66355 5.33453 5.19973 5.53636 5.687C5.7382 6.17427 6.07999 6.59074 6.51852 6.88376C6.95705 7.17678 7.47262 7.33317 8.00004 7.33317C8.70729 7.33317 9.38556 7.05222 9.88566 6.55213C10.3858 6.05203 10.6667 5.37375 10.6667 4.66651V4.66651ZM13.8354 6.13317C13.5921 7.235 13.0463 8.24714 12.2594 9.05584L10.2074 11.0912C9.91869 11.3806 9.57581 11.6103 9.19832 11.7671C8.82083 11.9239 8.41614 12.0048 8.00737 12.0052V12.0052C7.59883 12.0053 7.19426 11.925 6.81677 11.7687C6.43929 11.6125 6.09629 11.3834 5.80737 11.0945L3.76537 9.07918C2.9888 8.28197 2.44378 7.28848 2.18871 6.20517C1.7557 6.36389 1.35979 6.6096 1.02537 6.92717C0.699408 7.23708 0.44029 7.6104 0.26396 8.02417C0.08763 8.43794 -0.00218475 8.88341 4.03546e-05 9.33317V12.0498C0.00144142 12.7707 0.235902 13.4718 0.668434 14.0485C1.10097 14.6253 1.70838 15.0466 2.40004 15.2498L4.31337 15.8498C4.63475 15.9499 4.96946 16.0004 5.30604 15.9998C5.61137 15.9995 5.91524 15.9577 6.20937 15.8758L10.0627 14.7358C10.4059 14.6418 10.7681 14.6418 11.1114 14.7358L12.7027 15.2692C13.0949 15.3646 13.5037 15.3698 13.8982 15.2843C14.2926 15.1988 14.6626 15.0249 14.9801 14.7757C15.2976 14.5264 15.5543 14.2083 15.731 13.8454C15.9077 13.4825 15.9997 13.0842 16 12.6805V9.24784C15.9978 8.57038 15.7895 7.90964 15.4029 7.35334C15.0162 6.79703 14.4695 6.37148 13.8354 6.13317V6.13317Z" fill="white"/>
</svg>
