<svg width="14" height="14" viewBox="0 0 14 14" fill="none" xmlns="http://www.w3.org/2000/svg">
<path d="M12.2493 2.33332H10.441C10.1619 0.976254 8.96814 0.00175 7.58266 0H6.41599C5.03051 0.00175 3.83673 0.976254 3.55766 2.33332H1.74934C1.42718 2.33332 1.16602 2.59448 1.16602 2.91665C1.16602 3.23881 1.42718 3.5 1.74934 3.5H2.33266V11.0833C2.33461 12.6934 3.63931 13.9981 5.24934 14H8.74934C10.3594 13.9981 11.6641 12.6934 11.666 11.0833V3.5H12.2493C12.5715 3.5 12.8327 3.23884 12.8327 2.91668C12.8327 2.59451 12.5715 2.33332 12.2493 2.33332ZM6.41602 9.91668C6.41602 10.2388 6.15486 10.5 5.83269 10.5C5.5105 10.5 5.24934 10.2388 5.24934 9.91668V6.41668C5.24934 6.09451 5.5105 5.83335 5.83266 5.83335C6.15483 5.83335 6.41599 6.09451 6.41599 6.41668V9.91668H6.41602ZM8.74934 9.91668C8.74934 10.2388 8.48818 10.5 8.16602 10.5C7.84385 10.5 7.58269 10.2388 7.58269 9.91668V6.41668C7.58269 6.09451 7.84385 5.83335 8.16602 5.83335C8.48818 5.83335 8.74934 6.09451 8.74934 6.41668V9.91668ZM4.76577 2.33332C5.01388 1.63466 5.67462 1.16755 6.41602 1.16665H7.58269C8.32409 1.16755 8.98482 1.63466 9.23294 2.33332H4.76577Z" fill="white"/>
</svg>
