<svg width="14" height="14" viewBox="0 0 14 14" fill="none" xmlns="http://www.w3.org/2000/svg">
<g clip-path="url(#clip0_640_13927)">
<path d="M13.4173 6.41601H12.2506V5.24934C12.2506 4.92718 11.9895 4.66602 11.6673 4.66602C11.3451 4.66602 11.084 4.92718 11.084 5.24934V6.41601H9.91731C9.59514 6.41601 9.33398 6.67717 9.33398 6.99934C9.33398 7.3215 9.59514 7.58266 9.91731 7.58266H11.084V8.74933C11.084 9.0715 11.3451 9.33266 11.6673 9.33266C11.9895 9.33266 12.2506 9.0715 12.2506 8.74933V7.58266H13.4173C13.7395 7.58266 14.0006 7.3215 14.0006 6.99934C14.0006 6.67717 13.7395 6.41601 13.4173 6.41601Z" fill="white"/>
<path d="M5.25 7C7.183 7 8.75 5.433 8.75 3.5C8.75 1.567 7.183 0 5.25 0C3.317 0 1.75 1.567 1.75 3.5C1.75 5.433 3.317 7 5.25 7Z" fill="white"/>
<path d="M5.25 8.16602C2.35184 8.16924 0.00322656 10.5179 0 13.416C0 13.7382 0.26116 13.9993 0.583324 13.9993H9.91665C10.2388 13.9993 10.5 13.7382 10.5 13.416C10.4968 10.5179 8.14816 8.16921 5.25 8.16602Z" fill="white"/>
</g>
<defs>
<clipPath id="clip0_640_13927">
<rect width="14" height="14" fill="white"/>
</clipPath>
</defs>
</svg>
