<svg width="32" height="32" viewBox="0 0 32 32" fill="none" xmlns="http://www.w3.org/2000/svg">
<path d="M1.27717 1.1543L4.84842 5.6608C4.67811 8.6978 3.36417 11.0228 1.57405 13.1628L1.1543 13.0528V14.2603L1.31411 14.3023C2.27348 17.1189 1.88211 19.979 1.42786 22.9457L1.15436 23.0736V24.363L1.72811 24.0946C2.13536 24.7638 2.58173 25.785 2.91936 26.6777C3.12611 27.2256 3.31895 27.7786 3.49767 28.3362L1.15436 30.6918V30.8437H2.65073L4.43511 29.0499C5.01448 29.0272 7.04573 28.9579 9.60386 29.003C12.5254 29.0546 16.0171 29.2718 18.2945 29.8572L18.612 30.8437H19.839L19.3746 29.4007C21.6209 26.8064 23.8691 24.3679 27.608 23.0045L30.8439 24.2849V23.0288L28.1574 21.9658C27.759 19.5152 28.9546 17.1742 30.0712 14.6733L30.8439 14.5117V13.3185L30.4487 13.4012L30.108 13.226C26.6025 11.424 25.3372 8.35155 24.2768 4.93217L27.0383 1.1543H25.5914L23.1789 4.45492C19.5369 4.5333 16.1492 4.30098 13.526 2.09305L13.3839 1.1543H12.2027L12.38 2.32617C10.684 4.13805 8.7823 5.3233 5.84355 5.03592L2.7673 1.1543H1.27705H1.27717ZM13.772 3.71705C16.31 5.36105 19.3031 5.64792 22.3191 5.63142L20.2479 8.46517C17.9611 8.48992 15.8819 8.27555 14.2575 6.9253L13.772 3.71705H13.772ZM12.5949 3.74455L13.113 7.16798C11.9995 8.33148 10.7821 9.05423 8.8633 8.84636L6.79605 6.2378C9.20811 6.19155 11.0684 5.1663 12.5948 3.74455H12.5949ZM23.4276 6.09405C24.3986 9.02948 25.7432 11.8872 28.712 13.7642L25.4765 14.4404L25.4255 14.4144C23.0961 13.2178 22.2727 11.1869 21.5545 8.86248L21.5098 8.7178L23.4275 6.09405H23.4276ZM5.88136 6.96392L8.03092 9.6763C7.87323 11.5252 7.06817 12.9675 5.95967 14.3142L2.80942 13.4872C4.29155 11.6263 5.47442 9.52511 5.88142 6.96386L5.88136 6.96392ZM14.4969 8.50705C15.9929 9.36292 17.6875 9.59455 19.3971 9.6288L17.3402 12.443C16.3991 12.0453 15.7067 11.3335 14.9296 10.5477L14.7832 10.3996L14.4968 8.50711L14.4969 8.50705ZM13.3232 8.55767L13.6727 10.8674C12.9742 11.3361 12.1455 11.6267 11.2324 11.8356L9.80098 10.0295C11.2204 9.94236 12.3694 9.36205 13.3232 8.55767ZM20.6595 9.88098C21.2686 11.7032 22.1061 13.507 23.8207 14.7866L20.3252 15.5172C19.5129 14.8184 19.0767 13.9714 18.628 13.0241L18.5236 12.8035L20.6595 9.88098ZM9.00748 10.9087L10.2039 12.4183L10.199 12.4627C10.0784 13.548 9.64417 14.3145 9.15836 15.1541L7.18736 14.6366C8.01311 13.5519 8.68361 12.3349 9.00736 10.9087H9.00748ZM13.8621 12.1182L14.2379 14.6021C14.0153 14.6446 13.7997 14.7178 13.5972 14.8196L12.0237 12.8342C12.6605 12.6623 13.2818 12.4376 13.862 12.1183L13.8621 12.1182ZM15.0721 12.3084C15.5318 12.7195 16.0421 13.1035 16.6441 13.3953L15.6545 14.7492C15.5807 14.718 15.5055 14.6905 15.429 14.6668L15.0722 12.3084L15.0721 12.3084ZM11.1502 13.6124L12.7071 15.5768C12.6071 15.7149 12.5216 15.863 12.4521 16.0187L10.3325 15.4623C10.6422 14.915 10.9469 14.3215 11.1502 13.6124ZM17.7455 13.8675C18.0655 14.5185 18.4395 15.186 18.9739 15.7996L17.0274 16.2064C16.9297 15.9281 16.7828 15.6696 16.5939 15.4432L17.7455 13.8675V13.8675ZM2.6348 14.649L5.68936 15.4509C6.26605 17.2144 6.05155 19.0184 5.76436 20.9164L2.69736 22.3515C3.06923 19.8424 3.34048 17.2632 2.63486 14.649H2.6348ZM28.6437 14.9717C27.7104 17.0114 26.7615 19.1425 26.9291 21.4798L24.1954 20.3981C23.9704 18.8346 24.7439 17.3078 25.4907 15.6307L28.6438 14.9717L28.6437 14.9717ZM6.98267 15.7904L8.70855 16.2434L8.74367 16.3309C9.12492 17.2767 9.08011 18.3167 8.92492 19.4377L7.03005 20.3242C7.23092 18.8547 7.34105 17.336 6.98267 15.7905V15.7904ZM24.0636 15.929C23.4984 17.1675 22.9513 18.4792 22.9854 19.9194L20.6987 19.0146C20.6984 18.1929 20.7859 17.5871 21.2687 16.8946L21.5799 16.4481L24.0637 15.9289L24.0636 15.929ZM10.0411 16.5932L12.2434 17.1715C12.2569 17.3939 12.3006 17.6134 12.3733 17.824L10.1689 18.8554C10.2345 18.1117 10.2269 17.3524 10.0412 16.5932H10.0411ZM19.9886 16.7807C19.6995 17.3703 19.5899 17.9614 19.5544 18.5619L17.0995 17.5906C17.1161 17.5203 17.1289 17.4485 17.1395 17.3762L19.9885 16.7807H19.9886ZM16.5639 18.6346L18.8454 19.5373C18.2885 19.8235 17.7631 20.1958 17.303 20.5473C17.0931 20.7078 16.8871 20.8733 16.6852 21.0437L16.0538 19.0814C16.2438 18.9564 16.4154 18.8059 16.5639 18.6346H16.5639ZM12.9314 18.8524L10.5778 21.2184C10.4179 20.8309 10.2017 20.5217 9.97855 20.2662L9.98405 20.2315L12.9312 18.8524H12.9314ZM14.0395 19.3944C14.3363 19.4773 14.646 19.5039 14.9525 19.4728L15.6071 21.5065C14.775 21.4965 13.2563 21.5113 11.7513 21.6947L14.0394 19.3944L14.0395 19.3944ZM20.5074 20.195L22.0925 20.8221C20.255 21.7546 18.944 23.0656 17.7643 24.3971L17.074 22.2522C17.2962 22.0538 17.6197 21.7753 18.0122 21.4755C18.7259 20.93 19.6502 20.3692 20.2425 20.2488L20.5074 20.195V20.195ZM8.85123 20.7615L8.94605 20.8569C9.31155 21.224 9.56936 21.5008 9.64748 22.1537L7.70105 24.1105C7.67917 23.9686 7.65492 23.8211 7.62605 23.6641C7.50042 22.9797 7.34805 22.2302 7.04323 21.6076L8.85123 20.7617V20.7615ZM23.5967 21.4174L26.0479 22.3872C22.9589 23.7935 20.8657 25.93 18.9572 28.1041L18.18 25.6887C19.6865 23.9488 21.1596 22.3377 23.5968 21.4174L23.5967 21.4174ZM5.97261 22.1084C6.16023 22.5357 6.36148 23.244 6.47736 23.875C6.57623 24.4132 6.63361 24.88 6.66361 25.1532L4.42098 27.4079C4.29157 27.0243 4.15509 26.6432 4.01161 26.2647C3.67573 25.3762 3.26205 24.389 2.78598 23.5997L5.97261 22.1085V22.1084ZM15.4015 22.6802C15.6495 22.6798 15.8274 22.682 15.9859 22.6842L16.6357 24.703C14.9946 24.4436 12.9711 24.4411 11.1946 24.5039C10.2212 24.5383 9.44436 24.5869 8.82855 24.633L10.3353 23.1182L10.3947 23.1038C11.8788 22.7419 14.1359 22.6822 15.4015 22.6802ZM12.7645 25.642C14.3223 25.6387 15.9124 25.7212 17.0405 25.961L17.8798 28.5689C15.4605 28.0545 12.3183 27.8829 9.62442 27.8353C7.92305 27.8052 6.54711 27.8235 5.63255 27.8461L7.55755 25.9109C8.04286 25.8636 9.47692 25.7333 11.2359 25.6712C11.7296 25.6537 12.2452 25.643 12.7645 25.642L12.7645 25.642Z" fill="white"/>
</svg>
