<svg width="29" height="32" viewBox="0 0 29 32" fill="none" xmlns="http://www.w3.org/2000/svg">
<path d="M1.10862 23.625C2.19426 25.5092 4.60186 26.1566 6.48607 25.0709C6.48736 25.0702 6.48859 25.0694 6.48989 25.0687L7.07393 24.7314C8.17643 25.6747 9.44369 26.4062 10.8119 26.8891V27.5625C10.8119 29.7371 12.5748 31.5 14.7494 31.5C16.924 31.5 18.6869 29.7371 18.6869 27.5625V26.8892C20.0553 26.4054 21.3226 25.6731 22.4249 24.7288L23.0116 25.0674C24.8962 26.1547 27.3055 25.5084 28.3928 23.6236C29.4802 21.739 28.8338 19.3297 26.9491 18.2424L26.3663 17.9064C26.6287 16.479 26.6287 15.0157 26.3663 13.5883L26.9491 13.2523C28.8337 12.165 29.4802 9.75571 28.3928 7.871C27.3055 5.98635 24.8963 5.33993 23.0116 6.42723L22.4275 6.76456C21.3239 5.82245 20.0558 5.09229 18.6869 4.61081V3.9375C18.6869 1.76289 16.924 0 14.7494 0C12.5748 0 10.8119 1.76289 10.8119 3.9375V4.61081C9.4435 5.09457 8.17618 5.82695 7.07393 6.77121L6.48724 6.43129C4.60253 5.34393 2.19327 5.99035 1.10597 7.875C0.0186671 9.75965 0.665032 12.169 2.54974 13.2563L3.13249 13.5922C2.87016 15.0197 2.87016 16.4829 3.13249 17.9104L2.54974 18.2464C0.670262 19.3366 0.0259883 21.7412 1.10862 23.625ZM14.7494 10.5C17.6489 10.5 19.9994 12.8505 19.9994 15.75C19.9994 18.6495 17.6489 21 14.7494 21C11.8499 21 9.49943 18.6495 9.49943 15.75C9.49943 12.8505 11.8499 10.5 14.7494 10.5Z" fill="white"/>
</svg>
