<svg width="27" height="26" viewBox="0 0 27 26" fill="none" xmlns="http://www.w3.org/2000/svg">
<g clip-path="url(#clip0_640_13930)">
<path fill-rule="evenodd" clip-rule="evenodd" d="M22.2758 20.041C21.6724 20.041 21.0938 19.8013 20.6671 19.3747C20.2405 18.948 20.0008 18.3694 20.0008 17.766C20.0008 17.1626 20.2405 16.584 20.6671 16.1573C21.0938 15.7307 21.6724 15.491 22.2758 15.491C22.8791 15.491 23.4578 15.7307 23.8844 16.1573C24.3111 16.584 24.5508 17.1626 24.5508 17.766C24.5508 18.3694 24.3111 18.948 23.8844 19.3747C23.4578 19.8013 22.8791 20.041 22.2758 20.041ZM22.2758 21.991C21.1552 21.991 20.0806 21.5459 19.2883 20.7535C18.4959 19.9612 18.0508 18.8866 18.0508 17.766C18.0508 16.6455 18.4959 15.5708 19.2883 14.7785C20.0806 13.9861 21.1552 13.541 22.2758 13.541C23.3963 13.541 24.471 13.9861 25.2633 14.7785C26.0556 15.5708 26.5008 16.6455 26.5008 17.766C26.5008 18.8866 26.0556 19.9612 25.2633 20.7535C24.471 21.5459 23.3963 21.991 22.2758 21.991Z" fill="white"/>
<path fill-rule="evenodd" clip-rule="evenodd" d="M16.6895 4.16802C16.6375 4.05549 16.5543 3.96021 16.4498 3.89341C16.3454 3.82661 16.224 3.79108 16.1 3.79102H12.85V5.09102H15.6846L21.6854 18.039C21.7611 18.19 21.8926 18.3057 22.0521 18.3614C22.2115 18.4172 22.3864 18.4086 22.5397 18.3377C22.693 18.2667 22.8126 18.1388 22.8733 17.9811C22.9339 17.8235 22.9308 17.6484 22.8645 17.493L16.6895 4.16802ZM4.725 20.041C4.12163 20.041 3.54298 19.8013 3.11633 19.3747C2.68969 18.948 2.45 18.3694 2.45 17.766C2.45 17.1626 2.68969 16.584 3.11633 16.1573C3.54298 15.7307 4.12163 15.491 4.725 15.491C5.32837 15.491 5.90702 15.7307 6.33367 16.1573C6.76031 16.584 7 17.1626 7 17.766C7 18.3694 6.76031 18.948 6.33367 19.3747C5.90702 19.8013 5.32837 20.041 4.725 20.041ZM4.725 21.991C3.60446 21.991 2.52981 21.5459 1.73747 20.7535C0.945132 19.9612 0.5 18.8866 0.5 17.766C0.5 16.6455 0.945132 15.5708 1.73747 14.7785C2.52981 13.9861 3.60446 13.541 4.725 13.541C5.84554 13.541 6.92018 13.9861 7.71253 14.7785C8.50487 15.5708 8.95 16.6455 8.95 17.766C8.95 18.8866 8.50487 19.9612 7.71253 20.7535C6.92018 21.5459 5.84554 21.991 4.725 21.991Z" fill="white"/>
<path fill-rule="evenodd" clip-rule="evenodd" d="M11.8742 17.7652C11.8742 17.9376 11.8057 18.103 11.6838 18.2249C11.5619 18.3468 11.3966 18.4152 11.2242 18.4152H4.72422C4.55183 18.4152 4.3865 18.3468 4.2646 18.2249C4.1427 18.103 4.07422 17.9376 4.07422 17.7652C4.07422 17.5928 4.1427 17.4275 4.2646 17.3056C4.3865 17.1837 4.55183 17.1152 4.72422 17.1152H11.2242C11.3966 17.1152 11.5619 17.1837 11.6838 17.3056C11.8057 17.4275 11.8742 17.5928 11.8742 17.7652Z" fill="white"/>
<path d="M16.1344 12.8221L16.7844 11.5221C16.8746 11.3417 16.9216 11.1427 16.9216 10.941C16.9216 10.7393 16.8746 10.5404 16.7844 10.3599L16.1344 9.05992C16.0265 8.84381 15.8604 8.66208 15.6549 8.53509C15.4494 8.40811 15.2125 8.3409 14.971 8.34102H12.8389C12.2724 8.34108 11.7097 8.43374 11.173 8.61532L9.12875 9.30627C9.03264 9.33875 8.94547 9.39327 8.87421 9.46548C8.80295 9.53768 8.74958 9.62557 8.71837 9.7221C8.68717 9.81863 8.67899 9.92112 8.69449 10.0214C8.70999 10.1216 8.74874 10.2169 8.80765 10.2995L10.9221 13.268C10.9822 13.3525 11.0617 13.4213 11.1538 13.4688C11.246 13.5163 11.3482 13.5411 11.4518 13.541H14.9716C15.2131 13.541 15.4498 13.4737 15.6552 13.3468C15.8605 13.2198 16.0265 13.0381 16.1344 12.8221ZM1.15 9.64102H6.4124C6.51107 9.64091 6.60847 9.66328 6.69722 9.70641C6.78596 9.74954 6.86372 9.81231 6.9246 9.88997L8.7979 12.282C8.83753 12.3323 8.86138 12.3933 8.86645 12.4572C8.87152 12.5211 8.85758 12.5851 8.82639 12.6411C8.79519 12.6971 8.74814 12.7426 8.69114 12.7719C8.63414 12.8012 8.56974 12.813 8.50605 12.8059L1.0785 11.9804C0.919453 11.9628 0.772487 11.8871 0.665746 11.7679C0.559005 11.6487 0.499989 11.4943 0.5 11.3343V10.291C0.5 10.1186 0.568482 9.95329 0.690381 9.8314C0.812279 9.7095 0.977609 9.64102 1.15 9.64102ZM16.1 14.841H12.2C11.8552 14.841 11.5246 14.978 11.2808 15.2218C11.037 15.4656 10.9 15.7962 10.9 16.141V17.441C10.9 17.7858 11.037 18.1165 11.2808 18.3603C11.5246 18.6041 11.8552 18.741 12.2 18.741H14.8C15.1448 18.741 15.4754 18.6041 15.7192 18.3603C15.963 18.1165 16.1 17.7858 16.1 17.441V14.841ZM19.5508 7.04102H22.1053C22.1576 7.04096 22.2092 7.05351 22.2556 7.07761C22.3019 7.10172 22.3418 7.13665 22.3718 7.17947L24.1919 9.77947C24.226 9.82819 24.2461 9.88535 24.25 9.94473C24.2539 10.0041 24.2414 10.0634 24.214 10.1162C24.1865 10.1689 24.145 10.2132 24.0941 10.244C24.0432 10.2748 23.9849 10.2911 23.9254 10.291H20.8508C20.7905 10.291 20.7314 10.2742 20.6801 10.2425C20.6288 10.2109 20.5873 10.1655 20.5603 10.1116L19.2603 7.51162C19.2355 7.46207 19.2237 7.40699 19.2262 7.35162C19.2286 7.29626 19.2452 7.24244 19.2743 7.19528C19.3034 7.14812 19.3441 7.10919 19.3925 7.08219C19.4409 7.05519 19.4954 7.04102 19.5508 7.04102Z" fill="white"/>
</g>
<defs>
<clipPath id="clip0_640_13930">
<rect width="26" height="26" fill="white" transform="translate(0.5)"/>
</clipPath>
</defs>
</svg>
