<svg width="25" height="26" viewBox="0 0 25 26" fill="none" xmlns="http://www.w3.org/2000/svg">
<path d="M12.6053 0C7.55263 0 2.5 0.684211 2.5 5.47368V18.4737C2.5 19.7737 2.98 20.9505 3.76316 21.8126V24.6316C3.76316 25.3842 4.33158 26 5.02632 26H6.28947C6.98421 26 7.55263 25.3842 7.55263 24.6316V23.2632H17.6579V24.6316C17.6579 25.3842 18.2263 26 18.9211 26H20.1842C20.8789 26 21.4474 25.3842 21.4474 24.6316V21.8126C22.2305 20.9505 22.7105 19.7737 22.7105 18.4737V5.47368C22.7105 0.684211 18.1884 0 12.6053 0ZM8.18421 19.1579C7.13579 19.1579 6.28947 18.2411 6.28947 17.1053C6.28947 15.9695 7.13579 15.0526 8.18421 15.0526C9.23263 15.0526 10.0789 15.9695 10.0789 17.1053C10.0789 18.2411 9.23263 19.1579 8.18421 19.1579ZM17.0263 19.1579C15.9779 19.1579 15.1316 18.2411 15.1316 17.1053C15.1316 15.9695 15.9779 15.0526 17.0263 15.0526C18.0747 15.0526 18.9211 15.9695 18.9211 17.1053C18.9211 18.2411 18.0747 19.1579 17.0263 19.1579ZM20.1842 10.9474H5.02632V6.84211H20.1842V10.9474Z" fill="white" fill-opacity="0.56"/>
</svg>
