<svg width="32" height="32" viewBox="0 0 32 32" fill="none" xmlns="http://www.w3.org/2000/svg">
<path d="M0.5 15.75C0.5 7.33214 7.33214 0.5 15.75 0.5C24.1679 0.5 31 7.33214 31 15.75C31 24.1679 24.1679 31 15.75 31C7.33214 31 0.5 24.1679 0.5 15.75ZM6.31221 23.6128C7.14441 24.445 8.2731 24.9125 9.45 24.9125C10.6269 24.9125 11.7556 24.445 12.5878 23.6128C13.42 22.7806 13.8875 21.6519 13.8875 20.475C13.8875 19.2981 13.42 18.1694 12.5878 17.3372C11.7556 16.505 10.6269 16.0375 9.45 16.0375C8.2731 16.0375 7.14441 16.505 6.31221 17.3372C5.48002 18.1694 5.0125 19.2981 5.0125 20.475C5.0125 21.6519 5.48002 22.7806 6.31221 23.6128ZM12.6122 6.31221C11.78 7.14441 11.3125 8.2731 11.3125 9.45C11.3125 10.6269 11.78 11.7556 12.6122 12.5878C13.4444 13.42 14.5731 13.8875 15.75 13.8875C16.9269 13.8875 18.0556 13.42 18.8878 12.5878C19.72 11.7556 20.1875 10.6269 20.1875 9.45C20.1875 8.2731 19.72 7.14441 18.8878 6.31221C18.0556 5.48002 16.9269 5.0125 15.75 5.0125C14.5731 5.0125 13.4444 5.48002 12.6122 6.31221ZM18.9122 23.6128C19.7444 24.445 20.8731 24.9125 22.05 24.9125C23.2269 24.9125 24.3556 24.445 25.1878 23.6128C26.02 22.7806 26.4875 21.6519 26.4875 20.475C26.4875 19.2981 26.02 18.1694 25.1878 17.3372C24.3556 16.505 23.2269 16.0375 22.05 16.0375C20.8731 16.0375 19.7444 16.505 18.9122 17.3372C18.08 18.1694 17.6125 19.2981 17.6125 20.475C17.6125 21.6519 18.08 22.7806 18.9122 23.6128Z" fill="white" stroke="white"/>
</svg>
