<svg width="10" height="12" viewBox="0 0 10 12" fill="none" xmlns="http://www.w3.org/2000/svg">
<path d="M8.40033 8.52258C8.51864 8.14123 8.57968 7.752 8.57968 7.36109C8.57968 6.92895 8.5097 6.5017 8.37168 6.09131L7.80292 4.40088C7.6112 3.83154 7.15135 3.40528 6.57225 3.26074C6.36324 3.20871 6.09745 3.15375 5.80389 3.10676V2.50001H6.05624C6.33471 2.50001 6.56092 2.27564 6.56092 2.00002V1.00001C6.56092 0.448477 6.108 0 5.55156 0H3.53282C2.97638 0 2.52344 0.448477 2.52344 1.00001V2.00002C2.52344 2.27564 2.74967 2.50001 3.02812 2.50001H3.28047V3.10676C2.98691 3.15375 2.7211 3.20871 2.51211 3.26074C1.933 3.40528 1.47316 3.83154 1.28144 4.40088L0.712673 6.09131C0.57468 6.5017 0.504679 6.92897 0.504679 7.36109C0.504679 7.75202 0.565738 8.14123 0.684047 8.52258C0.293396 8.60984 0 8.95502 0 9.36792C0 9.76685 0.0768858 10.7393 0.255308 11.1795L0.366213 11.4544C0.499758 11.7859 0.81913 12 1.1794 12H7.9419C8.27557 12 8.57573 11.8164 8.72555 11.5203C8.97889 11.0173 9.08436 9.96534 9.08436 9.51391V9.36792C9.08436 8.95502 8.79098 8.60986 8.40033 8.52258ZM3.02812 2.00002V1.00001C3.02812 0.724383 3.25435 0.500016 3.5328 0.500016H5.55154C5.83 0.500016 6.05621 0.724383 6.05621 1.00001V2.00002H3.02812ZM5.29921 2.50001V3.04252C5.05703 3.01823 4.80622 3 4.54218 3C4.27814 3 4.02733 3.01821 3.78515 3.04252V2.50001H5.29921ZM1.19173 6.24952L1.7605 4.55909C1.89702 4.15209 2.22427 3.84816 2.63531 3.74562C3.0848 3.63356 3.78122 3.50002 4.54218 3.50002C5.30313 3.50002 5.99956 3.63356 6.44904 3.74562C6.86009 3.84816 7.18734 4.15212 7.32386 4.55909L7.89263 6.24952C8.01387 6.60888 8.07498 6.98292 8.07498 7.36109C8.07498 7.7742 7.99464 8.1858 7.84257 8.5872C7.66623 8.66801 7.51565 8.79942 7.4244 8.97975L7.19226 9.43948C7.11897 9.41496 7.0233 9.3855 6.91833 9.35461L7.24943 8.709C7.45939 8.29249 7.5703 7.82644 7.5703 7.36111C7.5703 7.03664 7.51757 6.71585 7.41406 6.40748L6.8453 4.71755C6.76446 4.47682 6.56584 4.2903 6.32583 4.23049C5.90346 4.12526 5.2509 4.00003 4.54218 4.00003C3.83393 4.00003 3.1809 4.12528 2.75802 4.23049C2.5185 4.2903 2.31987 4.47659 2.23903 4.71659L1.67027 6.40751C1.56677 6.71585 1.51404 7.03666 1.51404 7.36113C1.51404 7.82646 1.62494 8.29277 1.83636 8.71172L2.166 9.35461C2.06101 9.3855 1.96534 9.41498 1.89208 9.4395L1.65993 8.97954C1.56868 8.79933 1.41808 8.66798 1.24174 8.5872C1.08967 8.18576 1.00936 7.7742 1.00936 7.36111C1.00938 6.98292 1.07049 6.60888 1.19173 6.24952ZM6.79898 8.48414L6.41956 9.22413C5.91489 9.1073 5.25951 9 4.54218 9C3.82485 9 3.16947 9.1073 2.66482 9.22413L2.28684 8.48684C2.11138 8.13844 2.01874 7.74928 2.01874 7.36111C2.01874 7.09059 2.0626 6.82303 2.14935 6.56569L2.71812 4.87453C2.74423 4.79616 2.80832 4.73341 2.88126 4.71534C3.27652 4.61719 3.88519 4.5 4.54218 4.5C5.19966 4.5 5.80784 4.61719 6.20263 4.71534C6.27556 4.73365 6.34012 4.79616 6.36627 4.87526L6.93503 6.56569C7.02178 6.82301 7.06564 7.09059 7.06564 7.36111C7.06562 7.74926 6.97295 8.13818 6.79898 8.48414ZM8.57968 9.51391C8.57968 10.0051 8.46336 10.9211 8.2741 11.2964C8.21051 11.4219 8.08335 11.5 7.9419 11.5H1.1794C1.02663 11.5 0.891071 11.4092 0.834412 11.2688L0.723508 10.9936C0.589939 10.6633 0.504679 9.81005 0.504679 9.3679C0.504679 9.16502 0.671272 8.99998 0.876286 8.99998C1.01773 8.99998 1.14489 9.07809 1.20848 9.20334L1.54067 9.8618C1.59932 9.978 1.7393 10.0307 1.86005 9.98215C1.87237 9.97727 3.09367 9.49997 4.54218 9.49997C5.98626 9.49997 7.21199 9.97727 7.22431 9.98215C7.34456 10.0293 7.48504 9.97823 7.54368 9.8618L7.87588 9.2036C7.93947 9.07812 8.06662 8.99998 8.20807 8.99998C8.41311 8.99998 8.57968 9.16502 8.57968 9.3679V9.51391Z" fill="white"/>
<path d="M7.30465 10.4219C7.26079 10.2905 7.11639 10.2195 6.98675 10.2627C6.97936 10.2649 6.2322 10.5 4.54218 10.5C2.85216 10.5 2.10499 10.2649 2.09761 10.2627C1.9675 10.2195 1.82309 10.2905 1.77971 10.4219C1.73585 10.5527 1.80682 10.6936 1.93889 10.7371C1.97142 10.7478 2.75556 11 4.54218 11C6.32879 11 7.11293 10.7478 7.14546 10.7371C7.27754 10.6936 7.34851 10.5527 7.30465 10.4219Z" fill="white"/>
</svg>
